<svg width="90" height="90" viewBox="0 0 90 90" xmlns="http://www.w3.org/2000/svg">
    <g fill="#D1F2DF" fill-rule="nonzero">
        <path d="M35.87 35.871c9.907 0 17.936-8.03 17.936-17.935C53.806 8.03 45.776 0 35.871 0H0l17.935 35.871H0v17.935c9.906 0 17.935-8.03 17.935-17.935 0 9.906 8.03 17.935 17.936 17.935h17.935c0-9.905-8.03-17.935-17.935-17.935zm-1.515-7.244-1.727-.395 1.53-6.704-4.292 5.382-1.385-1.104 4.289-5.377-6.202 2.986-.77-1.596 6.195-2.985H25.11v-1.772h6.876l-6.202-2.986.77-1.596 6.196 2.984-4.292-5.382 1.385-1.105 4.286 5.377-1.531-6.712 1.727-.394 1.53 6.704 1.531-6.711 1.728.394-1.53 6.705 4.292-5.383 1.384 1.105-4.288 5.377 6.202-2.986.77 1.596-6.196 2.984h6.884v1.772h-6.876l6.202 2.987-.77 1.596-6.195-2.985 4.292 5.383-1.384 1.105-4.289-5.377 1.532 6.711-1.727.395-1.53-6.705-1.532 6.712z"/>
        <path d="M37.702 17.936a1.83 1.83 0 1 0-3.662-.001 1.83 1.83 0 0 0 3.662 0z"/>
        <g>
            <path d="m10.135 89.677-3.52-6.372H3.818v6.372H0V71.742h8.39c3.736 0 6.023 2.446 6.023 5.78 0 3.335-1.99 4.868-3.926 5.324l4.034 6.83h-4.384l-.002.001zm.379-12.155c0-1.506-1.157-2.42-2.69-2.42H3.816v4.84h4.006c1.534 0 2.69-.915 2.69-2.421v.001zM16.158 80.722c0-5.406 3.951-9.278 9.357-9.278 5.406 0 9.384 3.872 9.384 9.278 0 5.406-3.951 9.278-9.384 9.278s-9.357-3.872-9.357-9.278zm14.816 0c0-3.361-2.15-5.888-5.46-5.888-3.308 0-5.432 2.529-5.432 5.888 0 3.36 2.124 5.89 5.433 5.89 3.309 0 5.46-2.556 5.46-5.89zM37.316 89.677V71.742h7.072c5.621 0 9.519 3.576 9.519 8.98s-3.898 8.955-9.519 8.955h-7.072zm12.693-8.955c0-3.173-1.935-5.62-5.62-5.62h-3.254v11.212h3.253c3.55 0 5.621-2.554 5.621-5.592zM56.35 89.677V71.742h12.692v3.36h-8.874v3.792h8.686v3.361h-8.686v4.061h8.874v3.361zM70.895 80.722c0-5.406 3.951-9.278 9.357-9.278 5.406 0 9.384 3.872 9.384 9.278 0 5.406-3.951 9.278-9.384 9.278s-9.357-3.872-9.357-9.278zm14.817 0c0-3.361-2.151-5.888-5.46-5.888-3.31 0-5.433 2.529-5.433 5.888 0 3.36 2.124 5.89 5.433 5.89 3.309 0 5.46-2.556 5.46-5.89z"/>
        </g>
    </g>
</svg>
